<?xml version="1.0" encoding="utf-8"?>
<!-- Generator: Adobe Illustrator 22.1.0, SVG Export Plug-In . SVG Version: 6.00 Build 0)  -->
<svg version="1.1" id="Layer_1" xmlns="http://www.w3.org/2000/svg" xmlns:xlink="http://www.w3.org/1999/xlink" x="0px" y="0px"
	 viewBox="0 0 140 45" style="enable-background:new 0 0 140 45;" xml:space="preserve">
<style type="text/css">
	.st0{fill:#58595B;}
	.st1{fill:#36C0F1;}
</style>
<g>
	<g>
		<path class="st0" d="M78.2,33.5c-0.1,0-0.2-0.1-0.2-0.2V16.1h-6.4c-0.1,0-0.2-0.1-0.2-0.2v-2.7c0-0.1,0.1-0.2,0.2-0.2h16.9
			c0.1,0,0.2,0.1,0.2,0.2v2.7c0,0.1-0.1,0.2-0.2,0.2H82v17.2c0,0.1-0.1,0.2-0.2,0.2H78.2z"/>
	</g>
	<g>
		<path class="st1" d="M35.5,0c5.7,0,9.1,4.6,10.4,13.8c0,0.6,0.1,1.7,0.2,3.3c0,8.8-3,16.7-9,23.7c-2.8,2.8-5.6,4.2-8.4,4.2
			c-4.3,0-7.6-3.2-10-9.7c-0.7-2.2-1.1-4.7-1.1-7.5c0-7.8,2.3-15.3,7-22.5h0.2v0.3c-1.3,2.2-2.1,4.1-2.6,5.7v0.2h0.2
			C26.3,3.9,30.7,0,35.5,0z M21.4,28.9c0,7.7,2.6,12.3,7.9,13.7h0.9c1.1,0,2-0.4,2.5-1.1h-1.4c-4,0-6.5-3.3-7.7-9.8h0.3
			c1.6,5.1,3.9,7.6,6.9,7.6c4.7,0,8.3-4.5,11.1-13.5c0.7-2.9,1.1-5.8,1.1-8.6v-0.5c0-1.9-0.2-4-0.7-6.4H42v0.2
			c0.1,1,0.2,1.8,0.2,2.4v0.4c0,3.9-0.6,6.5-1.8,8v-0.2c0.6-2.1,0.9-4.1,0.9-5.9c0-5.5-1.6-9.3-4.8-11.3l-1.7-0.2
			c-4.7,0-8.7,5.2-12,15.6C21.9,23,21.4,26.2,21.4,28.9z"/>
	</g>
	<path class="st0" d="M134.2,30.2h-8.8V13.1h-1.1h-1.4h-1.6c-0.1,0-0.2,0.1-0.2,0.2v19.9c0,0.1,0.1,0.2,0.2,0.2h13
		c0.1,0,0.2-0.1,0.2-0.2v-2.8C134.4,30.3,134.3,30.2,134.2,30.2z"/>
	<g>
		<path class="st0" d="M137.1,14.8C137.1,14.8,137.1,14.8,137.1,14.8l0-1.3h-0.4c0,0,0,0,0,0v-0.3c0,0,0,0,0,0h1.2c0,0,0,0,0,0v0.3
			c0,0,0,0,0,0h-0.4v1.3c0,0,0,0,0,0H137.1z M139.7,14.8C139.7,14.8,139.7,14.8,139.7,14.8l0-1.2c-0.1,0.2-0.2,0.4-0.2,0.6
			s-0.2,0.4-0.2,0.6c0,0,0,0,0,0H139c0,0,0,0,0,0l-0.5-1.2v1.2c0,0,0,0,0,0h-0.3c0,0,0,0,0,0v-1.6c0,0,0,0,0,0h0.5c0,0,0,0,0,0
			s0,0,0,0l0.4,1.1c0-0.1,0.1-0.2,0.1-0.3c0-0.1,0.1-0.2,0.1-0.3c0-0.1,0.1-0.2,0.1-0.3c0-0.1,0.1-0.2,0.1-0.3c0,0,0,0,0,0
			c0,0,0,0,0,0h0.5c0,0,0,0,0,0v1.6c0,0,0,0,0,0H139.7z"/>
	</g>
	<g>
		<path class="st0" d="M0,33.5V13h6.4c2.6,0,4.6,0.6,5.8,1.7c1.3,1.1,1.9,2.7,1.9,4.7c0,1.2-0.2,2.3-0.7,3.4
			c-0.5,1.1-1.3,1.9-2.5,2.6c-1.2,0.7-2.7,1-4.7,1H4.4v7.3H0z M4.4,22.6h1.5c1.2,0,2.1-0.2,2.8-0.7c0.7-0.5,1.1-1.3,1.1-2.5
			c0-0.9-0.3-1.6-0.8-2.1c-0.6-0.5-1.4-0.8-2.6-0.8H4.4V22.6z"/>
	</g>
	<path class="st0" d="M65.7,33.3L59.6,25C60.9,24.7,62,24,62,24c0.8-0.4,1.4-1,1.9-1.7c0.7-0.9,1.1-2,1.1-3.4c0-4-2.7-6-8.2-6h-6.5
		v20.5h4.5v-7.9h1.3l4.4,7.7H65.7z M54.8,16.4h1.9c1.3,0,2.2,0.2,2.9,0.7c0.6,0.5,0.9,1.1,0.9,2.1c0,1.1-0.3,1.9-1,2.4
		c-0.6,0.5-1.6,0.7-2.8,0.7h-1.9V16.4z"/>
	<path class="st0" d="M104.9,13.3l-3.4,0l-7.8,20.1l4.2,0l1.1-3h0l1-3h5.5l1,2.7l1.3,3.2l4.9,0L104.9,13.3z M104.8,25.1l-0.3-0.7
		L104.8,25.1L104.8,25.1z M102.2,21.3c0.2-0.7,0.4-1.4,0.6-2l0.2,0c0.2,1,0.4,1.7,0.7,2.3c0.2,0.6,0.4,1.1,0.6,1.6l0.4,1.1h-3.4
		l0.3-0.9C101.7,22.8,102,22.1,102.2,21.3z"/>
</g>
</svg>
